<?xml version="1.0" encoding="iso-8859-1"?>
<!-- Generator: Adobe Illustrator 19.0.0, SVG Export Plug-In . SVG Version: 6.00 Build 0)  -->
<svg version="1.1" id="Layer_1" xmlns="http://www.w3.org/2000/svg" xmlns:xlink="http://www.w3.org/1999/xlink" x="0px" y="0px"
	 viewBox="0 0 512.004 512.004" style="enable-background:new 0 0 512.004 512.004;" xml:space="preserve">
<g>
	<path style="fill:#7B5428;" d="M432.553,88.276H79.45c-4.873,0-8.828-3.955-8.828-8.828v-35.31c0-4.873,3.955-8.828,8.828-8.828
		h353.103c4.873,0,8.828,3.955,8.828,8.828v35.31C441.381,84.321,437.426,88.276,432.553,88.276"/>
	<g>
		<path style="fill:#BD8042;" d="M414.898,35.31H97.105c0-19.5,15.81-35.31,35.31-35.31h247.172
			C399.088,0,414.898,15.81,414.898,35.31"/>
		<path style="fill:#BD8042;" d="M220.691,61.793c0,4.873-3.955,8.828-8.828,8.828c-4.873,0-8.828-3.955-8.828-8.828
			s3.955-8.828,8.828-8.828C216.737,52.966,220.691,56.92,220.691,61.793"/>
		<path style="fill:#BD8042;" d="M132.416,61.793c0,4.873-3.955,8.828-8.828,8.828s-8.828-3.955-8.828-8.828
			s3.955-8.828,8.828-8.828S132.416,56.92,132.416,61.793"/>
		<path style="fill:#BD8042;" d="M308.967,61.793c0,4.873-3.955,8.828-8.828,8.828c-4.873,0-8.828-3.955-8.828-8.828
			s3.955-8.828,8.828-8.828C305.013,52.966,308.967,56.92,308.967,61.793"/>
		<path style="fill:#BD8042;" d="M397.243,61.793c0,4.873-3.955,8.828-8.828,8.828s-8.828-3.955-8.828-8.828
			s3.955-8.828,8.828-8.828S397.243,56.92,397.243,61.793"/>
		<path style="fill:#BD8042;" d="M423.726,88.276c0,141.383-65.342,264.828-167.724,264.828S88.278,229.658,88.278,88.276H423.726z"
			/>
	</g>
	<g>
		<path style="fill:#7B5428;" d="M317.796,336.343c-18.653,10.849-39.247,16.764-61.793,16.764s-43.132-5.897-61.784-16.737
			c-1.492,99.257-36.493,175.634-79.457,175.634h282.483C354.28,512.004,319.288,435.61,317.796,336.343"/>
		<path style="fill:#7B5428;" d="M378.288,273.655c17.814-29.696,30.817-66.03,38.241-105.931H95.469
			c7.433,39.901,20.427,76.235,38.25,105.931H378.288z"/>
	</g>
	<path style="fill:#564A3F;" d="M384.195,263.181l-30.649-95.462h-18.829l-34.578,82.979l-34.578-82.979h-19.121l-34.578,82.979
		l-34.578-82.979h-18.829l-30.649,95.462c1.916,3.566,3.866,7.08,5.906,10.47h9.278l25.812-80.393l33.501,80.393h19.121
		l34.578-82.97l34.578,82.97h19.121l33.501-80.393l25.812,80.393h9.278C380.329,270.261,382.288,266.748,384.195,263.181"/>
</g>
<g>
</g>
<g>
</g>
<g>
</g>
<g>
</g>
<g>
</g>
<g>
</g>
<g>
</g>
<g>
</g>
<g>
</g>
<g>
</g>
<g>
</g>
<g>
</g>
<g>
</g>
<g>
</g>
<g>
</g>
</svg>
